<svg id="egRNq0Q8BxA1" xmlns="http://www.w3.org/2000/svg" xmlns:xlink="http://www.w3.org/1999/xlink" viewBox="0 0 365 390" shape-rendering="geometricPrecision" text-rendering="geometricPrecision"><path d="M182.5,7.587886c1.188587,23.843751-2.996407,52.603938-7.139262,61.72919-25.610049,1.72141-73.654155,8.417618-119.249584,0q-45.057931,7.735582-44.893967,8.417618c.278458,1.158294-3.376917,34.986547-4.208802,32.969009-1.52765-3.704949-9.657114,131.159235-7.008387,133.980414c1.913766,2.038366,8.634514,14.012553,15.425998,43.491014c4.325556,11.957332,10.740693,48.097356,14.730837,75.057103c6.239166,8.55063,15.421451,21.349579,25.954321,21.044044c4.841626,4.106613,21.361082,6.582784,32.267535,5.723721c24.664189-1.909055,40.664764-10.866591,54.714509-16.947222l15.432304-24.612357l11.223486-232.124984c-8.204686-22.483972,38.216436-45.42253,65.236543-42.088081c16.988753-6.962604,72.856087-1.963931,108.026093,3.507339c5.836911.125359,16.831098-3.671409,21.988373-8.417618q-.000001-15.432301-.000001-16.133769t-12.16782-36.476344c-3.518394-9.315765-14.060195-17.609916-21.044045-16.706973C276.289708,0.437119,198.629923,-1.800371,182.5,7.587886Z" transform="translate(.000003-.640484)" fill="#0556f9" fill-opacity="0.5" stroke="#0556f9" stroke-width="0.78" stroke-opacity="0.5"/></svg>