<svg id="eySW91bqGjo1" xmlns="http://www.w3.org/2000/svg" xmlns:xlink="http://www.w3.org/1999/xlink" viewBox="0 0 300 180" shape-rendering="geometricPrecision" text-rendering="geometricPrecision"><path d="M264.464242,6.953489C282.205764,6.533009,297.275762,21.394521,300,33.30416c5.026207,19.3125,5.680101,56.203439,0,73.781877-1.549166,14.029105-15.064647,19.470179-24.117134,21.080536-43.82568,10.666279-133.857138,20.83877-180.062917,21.080537-10.370083.516265-29.449318,11.740303-41.282719,19.323825-6.71875,3.394697-20.772441,3.028729-28.107382,0-7.387209.920263-15.026313-11.234642-16.688758-21.958892L34.943271,39.452648c-2.930978-5.013558-5.104867-15.305692-5-20.202181C32.4968,10.06265,47.485489,1.684081,58.050653,-0.000001l206.413589,6.95349Z" transform="translate(-4.999999 4.000001)" fill="#cbda32" fill-opacity="0.5" stroke="#cbda32" stroke-width="0.6" stroke-opacity="0.5"/></svg>